<svg xmlns="http://www.w3.org/2000/svg" xmlns:xlink="http://www.w3.org/1999/xlink" width="1400" zoomAndPan="magnify" viewBox="0 0 1050 149.999998" height="200" preserveAspectRatio="xMidYMid meet" version="1.0"><defs><g/></defs><g fill="#00ef8b" fill-opacity="1"><g transform="translate(32.015165, 113.249995)"><g><path d="M 9.03125 -75.296875 L 66.375 -75.296875 L 66.375 -60.25 L 25.609375 -60.25 L 25.609375 -44.21875 L 61.53125 -44.21875 L 61.53125 -29.15625 L 25.609375 -29.15625 L 25.609375 0 L 9.03125 0 Z M 9.03125 -75.296875 "/></g></g></g><g fill="#00ef8b" fill-opacity="1"><g transform="translate(102.586355, 113.249995)"><g><path d="M 8.0625 -78.53125 L 24.421875 -78.53125 L 24.421875 0 L 8.0625 0 Z M 8.0625 -78.53125 "/></g></g></g><g fill="#00ef8b" fill-opacity="1"><g transform="translate(135.074916, 113.249995)"><g><path d="M 35.609375 1.296875 C 31.160156 1.296875 27.035156 0.523438 23.234375 -1.015625 C 19.429688 -2.554688 16.148438 -4.671875 13.390625 -7.359375 C 10.628906 -10.054688 8.457031 -13.210938 6.875 -16.828125 C 5.300781 -20.453125 4.515625 -24.347656 4.515625 -28.515625 L 4.515625 -28.71875 C 4.515625 -32.882812 5.300781 -36.773438 6.875 -40.390625 C 8.457031 -44.015625 10.644531 -47.1875 13.4375 -49.90625 C 16.238281 -52.632812 19.539062 -54.785156 23.34375 -56.359375 C 27.144531 -57.941406 31.304688 -58.734375 35.828125 -58.734375 C 40.273438 -58.734375 44.394531 -57.960938 48.1875 -56.421875 C 51.988281 -54.878906 55.269531 -52.765625 58.03125 -50.078125 C 60.800781 -47.390625 62.972656 -44.234375 64.546875 -40.609375 C 66.117188 -36.984375 66.90625 -33.09375 66.90625 -28.9375 L 66.90625 -28.71875 C 66.90625 -24.5625 66.117188 -20.671875 64.546875 -17.046875 C 62.972656 -13.429688 60.785156 -10.257812 57.984375 -7.53125 C 55.179688 -4.800781 51.878906 -2.644531 48.078125 -1.0625 C 44.285156 0.507812 40.128906 1.296875 35.609375 1.296875 Z M 35.828125 -12.796875 C 38.191406 -12.796875 40.285156 -13.207031 42.109375 -14.03125 C 43.941406 -14.863281 45.503906 -15.992188 46.796875 -17.421875 C 48.085938 -18.859375 49.070312 -20.523438 49.75 -22.421875 C 50.4375 -24.328125 50.78125 -26.359375 50.78125 -28.515625 L 50.78125 -28.71875 C 50.78125 -30.875 50.421875 -32.898438 49.703125 -34.796875 C 48.984375 -36.703125 47.941406 -38.390625 46.578125 -39.859375 C 45.210938 -41.328125 43.597656 -42.488281 41.734375 -43.34375 C 39.867188 -44.207031 37.828125 -44.640625 35.609375 -44.640625 C 33.242188 -44.640625 31.144531 -44.226562 29.3125 -43.40625 C 27.488281 -42.582031 25.929688 -41.453125 24.640625 -40.015625 C 23.347656 -38.585938 22.359375 -36.921875 21.671875 -35.015625 C 20.992188 -33.117188 20.65625 -31.09375 20.65625 -28.9375 L 20.65625 -28.71875 C 20.65625 -26.570312 21.015625 -24.546875 21.734375 -22.640625 C 22.453125 -20.742188 23.488281 -19.0625 24.84375 -17.59375 C 26.207031 -16.125 27.800781 -14.957031 29.625 -14.09375 C 31.457031 -13.226562 33.523438 -12.796875 35.828125 -12.796875 Z M 35.828125 -12.796875 "/></g></g></g><g fill="#00ef8b" fill-opacity="1"><g transform="translate(206.506736, 113.249995)"><g><path d="M 2.578125 -57.65625 L 19.15625 -57.65625 L 28.40625 -22.703125 L 39.265625 -57.875 L 53.359375 -57.875 L 64.328125 -22.59375 L 73.796875 -57.65625 L 90.046875 -57.65625 L 72.078125 0.4375 L 57.34375 0.4375 L 46.265625 -34.96875 L 34.96875 0.4375 L 20.328125 0.4375 Z M 2.578125 -57.65625 "/></g></g></g><g fill="#ffffff" fill-opacity="1"><g transform="translate(299.132341, 113.249995)"><g><path d="M 44.328125 1.296875 C 38.796875 1.296875 33.664062 0.289062 28.9375 -1.71875 C 24.207031 -3.726562 20.117188 -6.472656 16.671875 -9.953125 C 13.234375 -13.429688 10.546875 -17.535156 8.609375 -22.265625 C 6.671875 -27.003906 5.703125 -32.0625 5.703125 -37.4375 L 5.703125 -37.65625 C 5.703125 -43.03125 6.671875 -48.066406 8.609375 -52.765625 C 10.546875 -57.460938 13.234375 -61.585938 16.671875 -65.140625 C 20.117188 -68.691406 24.242188 -71.488281 29.046875 -73.53125 C 33.847656 -75.570312 39.15625 -76.59375 44.96875 -76.59375 C 48.476562 -76.59375 51.6875 -76.304688 54.59375 -75.734375 C 57.5 -75.160156 60.132812 -74.367188 62.5 -73.359375 C 64.863281 -72.359375 67.050781 -71.140625 69.0625 -69.703125 C 71.070312 -68.273438 72.9375 -66.703125 74.65625 -64.984375 L 64.109375 -52.828125 C 61.171875 -55.472656 58.175781 -57.546875 55.125 -59.046875 C 52.082031 -60.554688 48.660156 -61.3125 44.859375 -61.3125 C 41.703125 -61.3125 38.78125 -60.703125 36.09375 -59.484375 C 33.40625 -58.265625 31.09375 -56.578125 29.15625 -54.421875 C 27.21875 -52.273438 25.707031 -49.785156 24.625 -46.953125 C 23.550781 -44.117188 23.015625 -41.09375 23.015625 -37.875 L 23.015625 -37.65625 C 23.015625 -34.425781 23.550781 -31.375 24.625 -28.5 C 25.707031 -25.632812 27.195312 -23.125 29.09375 -20.96875 C 31 -18.820312 33.296875 -17.117188 35.984375 -15.859375 C 38.671875 -14.609375 41.628906 -13.984375 44.859375 -13.984375 C 49.160156 -13.984375 52.800781 -14.769531 55.78125 -16.34375 C 58.757812 -17.925781 61.71875 -20.082031 64.65625 -22.8125 L 75.203125 -12.15625 C 73.265625 -10.070312 71.253906 -8.207031 69.171875 -6.5625 C 67.085938 -4.914062 64.804688 -3.5 62.328125 -2.3125 C 59.859375 -1.125 57.15625 -0.226562 54.21875 0.375 C 51.28125 0.988281 47.984375 1.296875 44.328125 1.296875 Z M 44.328125 1.296875 "/></g></g></g><g fill="#ffffff" fill-opacity="1"><g transform="translate(378.524933, 113.249995)"><g><path d="M 35.609375 1.296875 C 31.160156 1.296875 27.035156 0.523438 23.234375 -1.015625 C 19.429688 -2.554688 16.148438 -4.671875 13.390625 -7.359375 C 10.628906 -10.054688 8.457031 -13.210938 6.875 -16.828125 C 5.300781 -20.453125 4.515625 -24.347656 4.515625 -28.515625 L 4.515625 -28.71875 C 4.515625 -32.882812 5.300781 -36.773438 6.875 -40.390625 C 8.457031 -44.015625 10.644531 -47.1875 13.4375 -49.90625 C 16.238281 -52.632812 19.539062 -54.785156 23.34375 -56.359375 C 27.144531 -57.941406 31.304688 -58.734375 35.828125 -58.734375 C 40.273438 -58.734375 44.394531 -57.960938 48.1875 -56.421875 C 51.988281 -54.878906 55.269531 -52.765625 58.03125 -50.078125 C 60.800781 -47.390625 62.972656 -44.234375 64.546875 -40.609375 C 66.117188 -36.984375 66.90625 -33.09375 66.90625 -28.9375 L 66.90625 -28.71875 C 66.90625 -24.5625 66.117188 -20.671875 64.546875 -17.046875 C 62.972656 -13.429688 60.785156 -10.257812 57.984375 -7.53125 C 55.179688 -4.800781 51.878906 -2.644531 48.078125 -1.0625 C 44.285156 0.507812 40.128906 1.296875 35.609375 1.296875 Z M 35.828125 -12.796875 C 38.191406 -12.796875 40.285156 -13.207031 42.109375 -14.03125 C 43.941406 -14.863281 45.503906 -15.992188 46.796875 -17.421875 C 48.085938 -18.859375 49.070312 -20.523438 49.75 -22.421875 C 50.4375 -24.328125 50.78125 -26.359375 50.78125 -28.515625 L 50.78125 -28.71875 C 50.78125 -30.875 50.421875 -32.898438 49.703125 -34.796875 C 48.984375 -36.703125 47.941406 -38.390625 46.578125 -39.859375 C 45.210938 -41.328125 43.597656 -42.488281 41.734375 -43.34375 C 39.867188 -44.207031 37.828125 -44.640625 35.609375 -44.640625 C 33.242188 -44.640625 31.144531 -44.226562 29.3125 -43.40625 C 27.488281 -42.582031 25.929688 -41.453125 24.640625 -40.015625 C 23.347656 -38.585938 22.359375 -36.921875 21.671875 -35.015625 C 20.992188 -33.117188 20.65625 -31.09375 20.65625 -28.9375 L 20.65625 -28.71875 C 20.65625 -26.570312 21.015625 -24.546875 21.734375 -22.640625 C 22.453125 -20.742188 23.488281 -19.0625 24.84375 -17.59375 C 26.207031 -16.125 27.800781 -14.957031 29.625 -14.09375 C 31.457031 -13.226562 33.523438 -12.796875 35.828125 -12.796875 Z M 35.828125 -12.796875 "/></g></g></g><g fill="#ffffff" fill-opacity="1"><g transform="translate(449.956753, 113.249995)"><g><path d="M 7.3125 -57.65625 L 23.671875 -57.65625 L 23.671875 -49.484375 C 24.597656 -50.703125 25.617188 -51.867188 26.734375 -52.984375 C 27.847656 -54.097656 29.082031 -55.082031 30.4375 -55.9375 C 31.800781 -56.800781 33.328125 -57.484375 35.015625 -57.984375 C 36.703125 -58.484375 38.585938 -58.734375 40.671875 -58.734375 C 44.460938 -58.734375 47.738281 -57.941406 50.5 -56.359375 C 53.269531 -54.785156 55.40625 -52.53125 56.90625 -49.59375 C 59.414062 -52.601562 62.210938 -54.878906 65.296875 -56.421875 C 68.378906 -57.960938 71.894531 -58.734375 75.84375 -58.734375 C 81.9375 -58.734375 86.703125 -56.941406 90.140625 -53.359375 C 93.585938 -49.773438 95.3125 -44.503906 95.3125 -37.546875 L 95.3125 0 L 78.96875 0 L 78.96875 -32.171875 C 78.96875 -36.035156 78.140625 -38.953125 76.484375 -40.921875 C 74.835938 -42.898438 72.472656 -43.890625 69.390625 -43.890625 C 66.304688 -43.890625 63.882812 -42.898438 62.125 -40.921875 C 60.363281 -38.953125 59.484375 -36.035156 59.484375 -32.171875 L 59.484375 0 L 43.140625 0 L 43.140625 -32.171875 C 43.140625 -36.035156 42.3125 -38.953125 40.65625 -40.921875 C 39.007812 -42.898438 36.644531 -43.890625 33.5625 -43.890625 C 30.476562 -43.890625 28.054688 -42.898438 26.296875 -40.921875 C 24.546875 -38.953125 23.671875 -36.035156 23.671875 -32.171875 L 23.671875 0 L 7.3125 0 Z M 7.3125 -57.65625 "/></g></g></g><g fill="#ffffff" fill-opacity="1"><g transform="translate(552.155885, 113.249995)"><g><path d="M 7.3125 -57.65625 L 23.671875 -57.65625 L 23.671875 -49.484375 C 24.597656 -50.703125 25.617188 -51.867188 26.734375 -52.984375 C 27.847656 -54.097656 29.082031 -55.082031 30.4375 -55.9375 C 31.800781 -56.800781 33.328125 -57.484375 35.015625 -57.984375 C 36.703125 -58.484375 38.585938 -58.734375 40.671875 -58.734375 C 44.460938 -58.734375 47.738281 -57.941406 50.5 -56.359375 C 53.269531 -54.785156 55.40625 -52.53125 56.90625 -49.59375 C 59.414062 -52.601562 62.210938 -54.878906 65.296875 -56.421875 C 68.378906 -57.960938 71.894531 -58.734375 75.84375 -58.734375 C 81.9375 -58.734375 86.703125 -56.941406 90.140625 -53.359375 C 93.585938 -49.773438 95.3125 -44.503906 95.3125 -37.546875 L 95.3125 0 L 78.96875 0 L 78.96875 -32.171875 C 78.96875 -36.035156 78.140625 -38.953125 76.484375 -40.921875 C 74.835938 -42.898438 72.472656 -43.890625 69.390625 -43.890625 C 66.304688 -43.890625 63.882812 -42.898438 62.125 -40.921875 C 60.363281 -38.953125 59.484375 -36.035156 59.484375 -32.171875 L 59.484375 0 L 43.140625 0 L 43.140625 -32.171875 C 43.140625 -36.035156 42.3125 -38.953125 40.65625 -40.921875 C 39.007812 -42.898438 36.644531 -43.890625 33.5625 -43.890625 C 30.476562 -43.890625 28.054688 -42.898438 26.296875 -40.921875 C 24.546875 -38.953125 23.671875 -36.035156 23.671875 -32.171875 L 23.671875 0 L 7.3125 0 Z M 7.3125 -57.65625 "/></g></g></g><g fill="#ffffff" fill-opacity="1"><g transform="translate(654.355007, 113.249995)"><g><path d="M 26.46875 1.078125 C 20.226562 1.078125 15.40625 -0.820312 12 -4.625 C 8.59375 -8.425781 6.890625 -13.660156 6.890625 -20.328125 L 6.890625 -57.65625 L 23.234375 -57.65625 L 23.234375 -25.5 C 23.234375 -21.625 24.09375 -18.695312 25.8125 -16.71875 C 27.539062 -14.75 29.984375 -13.765625 33.140625 -13.765625 C 36.296875 -13.765625 38.785156 -14.75 40.609375 -16.71875 C 42.441406 -18.695312 43.359375 -21.625 43.359375 -25.5 L 43.359375 -57.65625 L 59.703125 -57.65625 L 59.703125 0 L 43.359375 0 L 43.359375 -8.171875 C 42.421875 -6.953125 41.394531 -5.785156 40.28125 -4.671875 C 39.175781 -3.566406 37.941406 -2.582031 36.578125 -1.71875 C 35.210938 -0.863281 33.703125 -0.1875 32.046875 0.3125 C 30.398438 0.820312 28.539062 1.078125 26.46875 1.078125 Z M 26.46875 1.078125 "/></g></g></g><g fill="#ffffff" fill-opacity="1"><g transform="translate(721.376136, 113.249995)"><g><path d="M 7.3125 -57.65625 L 23.671875 -57.65625 L 23.671875 -49.484375 C 24.597656 -50.703125 25.617188 -51.867188 26.734375 -52.984375 C 27.847656 -54.097656 29.082031 -55.082031 30.4375 -55.9375 C 31.800781 -56.800781 33.304688 -57.484375 34.953125 -57.984375 C 36.609375 -58.484375 38.476562 -58.734375 40.5625 -58.734375 C 46.800781 -58.734375 51.625 -56.832031 55.03125 -53.03125 C 58.4375 -49.226562 60.140625 -43.992188 60.140625 -37.328125 L 60.140625 0 L 43.78125 0 L 43.78125 -32.171875 C 43.78125 -36.035156 42.921875 -38.953125 41.203125 -40.921875 C 39.484375 -42.898438 37.046875 -43.890625 33.890625 -43.890625 C 30.734375 -43.890625 28.238281 -42.898438 26.40625 -40.921875 C 24.582031 -38.953125 23.671875 -36.035156 23.671875 -32.171875 L 23.671875 0 L 7.3125 0 Z M 7.3125 -57.65625 "/></g></g></g><g fill="#ffffff" fill-opacity="1"><g transform="translate(788.397265, 113.249995)"><g><path d="M 7.640625 -78.53125 L 24.84375 -78.53125 L 24.84375 -64.015625 L 7.640625 -64.015625 Z M 8.0625 -57.65625 L 24.421875 -57.65625 L 24.421875 0 L 8.0625 0 Z M 8.0625 -57.65625 "/></g></g></g><g fill="#ffffff" fill-opacity="1"><g transform="translate(820.88585, 113.249995)"><g><path d="M 26.78125 0.96875 C 24.269531 0.96875 21.992188 0.695312 19.953125 0.15625 C 17.910156 -0.375 16.15625 -1.320312 14.6875 -2.6875 C 13.21875 -4.050781 12.066406 -5.828125 11.234375 -8.015625 C 10.410156 -10.203125 10 -12.984375 10 -16.359375 L 10 -43.671875 L 3.125 -43.671875 L 3.125 -57.65625 L 10 -57.65625 L 10 -72.40625 L 26.359375 -72.40625 L 26.359375 -57.65625 L 39.90625 -57.65625 L 39.90625 -43.671875 L 26.359375 -43.671875 L 26.359375 -19.046875 C 26.359375 -15.316406 28.113281 -13.453125 31.625 -13.453125 C 34.5 -13.453125 37.191406 -14.128906 39.703125 -15.484375 L 39.703125 -2.359375 C 37.972656 -1.359375 36.066406 -0.554688 33.984375 0.046875 C 31.910156 0.660156 29.507812 0.96875 26.78125 0.96875 Z M 26.78125 0.96875 "/></g></g></g><g fill="#ffffff" fill-opacity="1"><g transform="translate(865.530714, 113.249995)"><g><path d="M 7.640625 -78.53125 L 24.84375 -78.53125 L 24.84375 -64.015625 L 7.640625 -64.015625 Z M 8.0625 -57.65625 L 24.421875 -57.65625 L 24.421875 0 L 8.0625 0 Z M 8.0625 -57.65625 "/></g></g></g><g fill="#ffffff" fill-opacity="1"><g transform="translate(898.019298, 113.249995)"><g><path d="M 34.640625 1.296875 C 30.335938 1.296875 26.335938 0.578125 22.640625 -0.859375 C 18.953125 -2.296875 15.757812 -4.335938 13.0625 -6.984375 C 10.375 -9.640625 8.273438 -12.78125 6.765625 -16.40625 C 5.265625 -20.03125 4.515625 -24.066406 4.515625 -28.515625 L 4.515625 -28.71875 C 4.515625 -32.8125 5.210938 -36.6875 6.609375 -40.34375 C 8.015625 -44 9.972656 -47.1875 12.484375 -49.90625 C 14.992188 -52.632812 17.984375 -54.785156 21.453125 -56.359375 C 24.929688 -57.941406 28.789062 -58.734375 33.03125 -58.734375 C 37.832031 -58.734375 41.988281 -57.875 45.5 -56.15625 C 49.019531 -54.4375 51.941406 -52.125 54.265625 -49.21875 C 56.597656 -46.3125 58.320312 -42.972656 59.4375 -39.203125 C 60.550781 -35.441406 61.109375 -31.519531 61.109375 -27.4375 C 61.109375 -26.789062 61.085938 -26.109375 61.046875 -25.390625 C 61.015625 -24.671875 60.960938 -23.914062 60.890625 -23.125 L 20.765625 -23.125 C 21.554688 -19.394531 23.1875 -16.578125 25.65625 -14.671875 C 28.132812 -12.773438 31.203125 -11.828125 34.859375 -11.828125 C 37.578125 -11.828125 40.007812 -12.289062 42.15625 -13.21875 C 44.3125 -14.15625 46.539062 -15.664062 48.84375 -17.75 L 58.203125 -9.46875 C 55.472656 -6.09375 52.171875 -3.453125 48.296875 -1.546875 C 44.429688 0.347656 39.878906 1.296875 34.640625 1.296875 Z M 45.1875 -33.34375 C 44.6875 -37 43.394531 -39.957031 41.3125 -42.21875 C 39.226562 -44.476562 36.46875 -45.609375 33.03125 -45.609375 C 29.582031 -45.609375 26.800781 -44.492188 24.6875 -42.265625 C 22.570312 -40.046875 21.191406 -37.070312 20.546875 -33.34375 Z M 45.1875 -33.34375 "/></g></g></g><g fill="#ffffff" fill-opacity="1"><g transform="translate(963.964637, 113.249995)"><g><path d="M 27.546875 1.078125 C 23.453125 1.078125 19.269531 0.378906 15 -1.015625 C 10.738281 -2.421875 6.671875 -4.628906 2.796875 -7.640625 L 9.796875 -18.390625 C 12.941406 -16.097656 16.070312 -14.378906 19.1875 -13.234375 C 22.3125 -12.085938 25.238281 -11.515625 27.96875 -11.515625 C 30.332031 -11.515625 32.070312 -11.90625 33.1875 -12.6875 C 34.300781 -13.476562 34.859375 -14.519531 34.859375 -15.8125 L 34.859375 -16.03125 C 34.859375 -16.882812 34.535156 -17.632812 33.890625 -18.28125 C 33.242188 -18.925781 32.363281 -19.484375 31.25 -19.953125 C 30.132812 -20.421875 28.859375 -20.867188 27.421875 -21.296875 C 25.992188 -21.734375 24.492188 -22.203125 22.921875 -22.703125 C 20.910156 -23.273438 18.878906 -23.972656 16.828125 -24.796875 C 14.785156 -25.617188 12.941406 -26.691406 11.296875 -28.015625 C 9.648438 -29.347656 8.304688 -30.984375 7.265625 -32.921875 C 6.222656 -34.859375 5.703125 -37.222656 5.703125 -40.015625 L 5.703125 -40.234375 C 5.703125 -43.171875 6.253906 -45.769531 7.359375 -48.03125 C 8.472656 -50.289062 9.976562 -52.207031 11.875 -53.78125 C 13.78125 -55.363281 16.003906 -56.546875 18.546875 -57.328125 C 21.097656 -58.117188 23.84375 -58.515625 26.78125 -58.515625 C 30.4375 -58.515625 34.144531 -57.921875 37.90625 -56.734375 C 41.675781 -55.554688 45.140625 -53.929688 48.296875 -51.859375 L 42.0625 -40.5625 C 39.195312 -42.207031 36.398438 -43.515625 33.671875 -44.484375 C 30.941406 -45.453125 28.539062 -45.9375 26.46875 -45.9375 C 24.457031 -45.9375 22.945312 -45.554688 21.9375 -44.796875 C 20.9375 -44.046875 20.4375 -43.097656 20.4375 -41.953125 L 20.4375 -41.734375 C 20.4375 -40.953125 20.757812 -40.253906 21.40625 -39.640625 C 22.050781 -39.035156 22.910156 -38.460938 23.984375 -37.921875 C 25.066406 -37.378906 26.304688 -36.859375 27.703125 -36.359375 C 29.097656 -35.859375 30.585938 -35.359375 32.171875 -34.859375 C 34.171875 -34.210938 36.210938 -33.441406 38.296875 -32.546875 C 40.378906 -31.648438 42.242188 -30.554688 43.890625 -29.265625 C 45.535156 -27.972656 46.894531 -26.394531 47.96875 -24.53125 C 49.050781 -22.664062 49.59375 -20.40625 49.59375 -17.75 L 49.59375 -17.53125 C 49.59375 -14.300781 49.035156 -11.519531 47.921875 -9.1875 C 46.816406 -6.863281 45.257812 -4.945312 43.25 -3.4375 C 41.238281 -1.9375 38.890625 -0.804688 36.203125 -0.046875 C 33.515625 0.703125 30.628906 1.078125 27.546875 1.078125 Z M 27.546875 1.078125 "/></g></g></g></svg>