<svg xmlns="http://www.w3.org/2000/svg" xmlns:xlink="http://www.w3.org/1999/xlink" width="1200" zoomAndPan="magnify" viewBox="0 0 900 149.999998" height="200" preserveAspectRatio="xMidYMid meet" version="1.0"><defs><g/></defs><g fill="#00ef8b" fill-opacity="1"><g transform="translate(34.889649, 116.299191)"><g><path d="M 9.71875 -80.953125 L 71.34375 -80.953125 L 71.34375 -64.765625 L 27.515625 -64.765625 L 27.515625 -47.53125 L 66.140625 -47.53125 L 66.140625 -31.34375 L 27.515625 -31.34375 L 27.515625 0 L 9.71875 0 Z M 9.71875 -80.953125 "/></g></g></g><g fill="#00ef8b" fill-opacity="1"><g transform="translate(110.741411, 116.299191)"><g><path d="M 8.671875 -84.421875 L 26.25 -84.421875 L 26.25 0 L 8.671875 0 Z M 8.671875 -84.421875 "/></g></g></g><g fill="#00ef8b" fill-opacity="1"><g transform="translate(145.660976, 116.299191)"><g><path d="M 38.28125 1.390625 C 33.5 1.390625 29.0625 0.5625 24.96875 -1.09375 C 20.882812 -2.75 17.359375 -5.023438 14.390625 -7.921875 C 11.421875 -10.816406 9.085938 -14.207031 7.390625 -18.09375 C 5.703125 -21.988281 4.859375 -26.171875 4.859375 -30.640625 L 4.859375 -30.875 C 4.859375 -35.34375 5.703125 -39.523438 7.390625 -43.421875 C 9.085938 -47.316406 11.441406 -50.726562 14.453125 -53.65625 C 17.460938 -56.582031 21.007812 -58.894531 25.09375 -60.59375 C 29.175781 -62.289062 33.648438 -63.140625 38.515625 -63.140625 C 43.285156 -63.140625 47.710938 -62.3125 51.796875 -60.65625 C 55.890625 -59 59.421875 -56.722656 62.390625 -53.828125 C 65.359375 -50.941406 67.6875 -47.550781 69.375 -43.65625 C 71.070312 -39.757812 71.921875 -35.578125 71.921875 -31.109375 L 71.921875 -30.875 C 71.921875 -26.40625 71.070312 -22.222656 69.375 -18.328125 C 67.6875 -14.429688 65.335938 -11.019531 62.328125 -8.09375 C 59.328125 -5.164062 55.78125 -2.851562 51.6875 -1.15625 C 47.601562 0.539062 43.132812 1.390625 38.28125 1.390625 Z M 38.515625 -13.765625 C 41.054688 -13.765625 43.304688 -14.207031 45.265625 -15.09375 C 47.234375 -15.976562 48.910156 -17.191406 50.296875 -18.734375 C 51.691406 -20.273438 52.753906 -22.066406 53.484375 -24.109375 C 54.210938 -26.148438 54.578125 -28.328125 54.578125 -30.640625 L 54.578125 -30.875 C 54.578125 -33.1875 54.191406 -35.363281 53.421875 -37.40625 C 52.648438 -39.445312 51.53125 -41.257812 50.0625 -42.84375 C 48.601562 -44.425781 46.867188 -45.675781 44.859375 -46.59375 C 42.859375 -47.519531 40.664062 -47.984375 38.28125 -47.984375 C 35.726562 -47.984375 33.46875 -47.539062 31.5 -46.65625 C 29.539062 -45.769531 27.867188 -44.554688 26.484375 -43.015625 C 25.097656 -41.472656 24.035156 -39.679688 23.296875 -37.640625 C 22.566406 -35.597656 22.203125 -33.421875 22.203125 -31.109375 L 22.203125 -30.875 C 22.203125 -28.5625 22.585938 -26.382812 23.359375 -24.34375 C 24.128906 -22.300781 25.242188 -20.488281 26.703125 -18.90625 C 28.171875 -17.320312 29.890625 -16.066406 31.859375 -15.140625 C 33.828125 -14.222656 36.046875 -13.765625 38.515625 -13.765625 Z M 38.515625 -13.765625 "/></g></g></g><g fill="#00ef8b" fill-opacity="1"><g transform="translate(222.437751, 116.299191)"><g><path d="M 2.78125 -61.984375 L 20.578125 -61.984375 L 30.53125 -24.40625 L 42.203125 -62.21875 L 57.359375 -62.21875 L 69.15625 -24.28125 L 79.328125 -61.984375 L 96.796875 -61.984375 L 77.484375 0.46875 L 61.640625 0.46875 L 49.71875 -37.578125 L 37.578125 0.46875 L 21.859375 0.46875 Z M 2.78125 -61.984375 "/></g></g></g><g fill="#ffffff" fill-opacity="1"><g transform="translate(322.004253, 116.299191)"><g><path d="M 37.46875 -81.53125 L 53.890625 -81.53125 L 88.578125 0 L 69.96875 0 L 62.5625 -18.15625 L 28.328125 -18.15625 L 20.9375 0 L 2.78125 0 Z M 56.203125 -33.875 L 45.453125 -60.140625 L 34.6875 -33.875 Z M 56.203125 -33.875 "/></g></g></g><g fill="#ffffff" fill-opacity="1"><g transform="translate(413.350115, 116.299191)"><g><path d="M 7.859375 -61.984375 L 25.4375 -61.984375 L 25.4375 -53.1875 C 26.4375 -54.5 27.535156 -55.753906 28.734375 -56.953125 C 29.929688 -58.148438 31.257812 -59.207031 32.71875 -60.125 C 34.1875 -61.050781 35.804688 -61.785156 37.578125 -62.328125 C 39.359375 -62.867188 41.363281 -63.140625 43.59375 -63.140625 C 50.300781 -63.140625 55.484375 -61.09375 59.140625 -57 C 62.804688 -52.914062 64.640625 -47.289062 64.640625 -40.125 L 64.640625 0 L 47.0625 0 L 47.0625 -34.578125 C 47.0625 -38.742188 46.132812 -41.882812 44.28125 -44 C 42.4375 -46.125 39.816406 -47.1875 36.421875 -47.1875 C 33.035156 -47.1875 30.359375 -46.125 28.390625 -44 C 26.421875 -41.882812 25.4375 -38.742188 25.4375 -34.578125 L 25.4375 0 L 7.859375 0 Z M 7.859375 -61.984375 "/></g></g></g><g fill="#ffffff" fill-opacity="1"><g transform="translate(485.386158, 116.299191)"><g><path d="M 25.4375 1.15625 C 22.507812 1.15625 19.753906 0.753906 17.171875 -0.046875 C 14.585938 -0.859375 12.332031 -2.070312 10.40625 -3.6875 C 8.476562 -5.3125 6.953125 -7.300781 5.828125 -9.65625 C 4.710938 -12.007812 4.15625 -14.726562 4.15625 -17.8125 L 4.15625 -18.046875 C 4.15625 -21.429688 4.769531 -24.359375 6 -26.828125 C 7.238281 -29.296875 8.957031 -31.335938 11.15625 -32.953125 C 13.351562 -34.578125 15.972656 -35.789062 19.015625 -36.59375 C 22.066406 -37.40625 25.441406 -37.8125 29.140625 -37.8125 C 32.296875 -37.8125 35.050781 -37.578125 37.40625 -37.109375 C 39.757812 -36.648438 42.054688 -36.035156 44.296875 -35.265625 L 44.296875 -36.3125 C 44.296875 -40.007812 43.175781 -42.820312 40.9375 -44.75 C 38.695312 -46.675781 35.378906 -47.640625 30.984375 -47.640625 C 27.597656 -47.640625 24.613281 -47.347656 22.03125 -46.765625 C 19.445312 -46.191406 16.726562 -45.367188 13.875 -44.296875 L 9.484375 -57.703125 C 12.878906 -59.171875 16.425781 -60.363281 20.125 -61.28125 C 23.820312 -62.207031 28.289062 -62.671875 33.53125 -62.671875 C 38.394531 -62.671875 42.539062 -62.070312 45.96875 -60.875 C 49.394531 -59.6875 52.226562 -57.972656 54.46875 -55.734375 C 56.78125 -53.421875 58.472656 -50.585938 59.546875 -47.234375 C 60.628906 -43.878906 61.171875 -40.125 61.171875 -35.96875 L 61.171875 0 L 44.171875 0 L 44.171875 -6.703125 C 42.015625 -4.316406 39.429688 -2.410156 36.421875 -0.984375 C 33.421875 0.441406 29.757812 1.15625 25.4375 1.15625 Z M 30.765625 -10.984375 C 34.921875 -10.984375 38.25 -11.984375 40.75 -13.984375 C 43.257812 -15.992188 44.515625 -18.617188 44.515625 -21.859375 L 44.515625 -24.984375 C 42.972656 -25.671875 41.257812 -26.226562 39.375 -26.65625 C 37.488281 -27.082031 35.460938 -27.296875 33.296875 -27.296875 C 29.523438 -27.296875 26.554688 -26.5625 24.390625 -25.09375 C 22.234375 -23.625 21.15625 -21.503906 21.15625 -18.734375 L 21.15625 -18.5 C 21.15625 -16.113281 22.039062 -14.265625 23.8125 -12.953125 C 25.59375 -11.640625 27.910156 -10.984375 30.765625 -10.984375 Z M 30.765625 -10.984375 "/></g></g></g><g fill="#ffffff" fill-opacity="1"><g transform="translate(553.837737, 116.299191)"><g><path d="M 8.671875 -84.421875 L 26.25 -84.421875 L 26.25 0 L 8.671875 0 Z M 8.671875 -84.421875 "/></g></g></g><g fill="#ffffff" fill-opacity="1"><g transform="translate(588.757301, 116.299191)"><g><path d="M 48.5625 -61.984375 L 66.84375 -61.984375 L 43.015625 1.5 C 41.859375 4.664062 40.625 7.347656 39.3125 9.546875 C 38.007812 11.742188 36.566406 13.535156 34.984375 14.921875 C 33.398438 16.304688 31.601562 17.304688 29.59375 17.921875 C 27.59375 18.535156 25.285156 18.84375 22.671875 18.84375 C 19.429688 18.84375 16.578125 18.457031 14.109375 17.6875 C 11.640625 16.914062 9.285156 15.878906 7.046875 14.578125 L 12.953125 1.84375 C 14.109375 2.539062 15.359375 3.117188 16.703125 3.578125 C 18.054688 4.046875 19.3125 4.28125 20.46875 4.28125 C 22.007812 4.28125 23.222656 3.988281 24.109375 3.40625 C 24.992188 2.832031 25.820312 1.773438 26.59375 0.234375 L 2.3125 -61.984375 L 20.9375 -61.984375 L 35.046875 -19.78125 Z M 48.5625 -61.984375 "/></g></g></g><g fill="#ffffff" fill-opacity="1"><g transform="translate(658.133893, 116.299191)"><g><path d="M 28.796875 1.046875 C 26.097656 1.046875 23.648438 0.753906 21.453125 0.171875 C 19.253906 -0.398438 17.363281 -1.421875 15.78125 -2.890625 C 14.207031 -4.359375 12.972656 -6.265625 12.078125 -8.609375 C 11.191406 -10.960938 10.75 -13.953125 10.75 -17.578125 L 10.75 -46.953125 L 3.359375 -46.953125 L 3.359375 -61.984375 L 10.75 -61.984375 L 10.75 -77.828125 L 28.328125 -77.828125 L 28.328125 -61.984375 L 42.90625 -61.984375 L 42.90625 -46.953125 L 28.328125 -46.953125 L 28.328125 -20.46875 C 28.328125 -16.457031 30.21875 -14.453125 34 -14.453125 C 37.082031 -14.453125 39.972656 -15.1875 42.671875 -16.65625 L 42.671875 -2.546875 C 40.816406 -1.460938 38.769531 -0.59375 36.53125 0.0625 C 34.300781 0.71875 31.722656 1.046875 28.796875 1.046875 Z M 28.796875 1.046875 "/></g></g></g><g fill="#ffffff" fill-opacity="1"><g transform="translate(706.119385, 116.299191)"><g><path d="M 8.203125 -84.421875 L 26.71875 -84.421875 L 26.71875 -68.8125 L 8.203125 -68.8125 Z M 8.671875 -61.984375 L 26.25 -61.984375 L 26.25 0 L 8.671875 0 Z M 8.671875 -61.984375 "/></g></g></g><g fill="#ffffff" fill-opacity="1"><g transform="translate(741.038925, 116.299191)"><g><path d="M 37.125 1.390625 C 32.5 1.390625 28.195312 0.539062 24.21875 -1.15625 C 20.25 -2.851562 16.835938 -5.144531 13.984375 -8.03125 C 11.140625 -10.925781 8.90625 -14.316406 7.28125 -18.203125 C 5.664062 -22.097656 4.859375 -26.242188 4.859375 -30.640625 L 4.859375 -30.875 C 4.859375 -35.269531 5.664062 -39.429688 7.28125 -43.359375 C 8.90625 -47.296875 11.140625 -50.726562 13.984375 -53.65625 C 16.835938 -56.582031 20.25 -58.894531 24.21875 -60.59375 C 28.195312 -62.289062 32.578125 -63.140625 37.359375 -63.140625 C 43.210938 -63.140625 48.066406 -62.210938 51.921875 -60.359375 C 55.773438 -58.515625 59.164062 -55.972656 62.09375 -52.734375 L 51.34375 -41.171875 C 49.34375 -43.253906 47.28125 -44.910156 45.15625 -46.140625 C 43.039062 -47.367188 40.398438 -47.984375 37.234375 -47.984375 C 34.992188 -47.984375 32.96875 -47.539062 31.15625 -46.65625 C 29.351562 -45.769531 27.773438 -44.554688 26.421875 -43.015625 C 25.078125 -41.472656 24.035156 -39.679688 23.296875 -37.640625 C 22.566406 -35.597656 22.203125 -33.421875 22.203125 -31.109375 L 22.203125 -30.875 C 22.203125 -28.488281 22.566406 -26.253906 23.296875 -24.171875 C 24.035156 -22.085938 25.097656 -20.273438 26.484375 -18.734375 C 27.867188 -17.191406 29.523438 -15.976562 31.453125 -15.09375 C 33.378906 -14.207031 35.539062 -13.765625 37.9375 -13.765625 C 40.863281 -13.765625 43.425781 -14.359375 45.625 -15.546875 C 47.820312 -16.742188 50 -18.347656 52.15625 -20.359375 L 62.453125 -9.9375 C 59.441406 -6.625 56.007812 -3.90625 52.15625 -1.78125 C 48.300781 0.332031 43.289062 1.390625 37.125 1.390625 Z M 37.125 1.390625 "/></g></g></g><g fill="#ffffff" fill-opacity="1"><g transform="translate(807.062346, 116.299191)"><g><path d="M 29.609375 1.15625 C 25.210938 1.15625 20.71875 0.40625 16.125 -1.09375 C 11.539062 -2.601562 7.164062 -4.972656 3 -8.203125 L 10.515625 -19.78125 C 13.910156 -17.3125 17.285156 -15.457031 20.640625 -14.21875 C 23.992188 -12.988281 27.132812 -12.375 30.0625 -12.375 C 32.601562 -12.375 34.472656 -12.796875 35.671875 -13.640625 C 36.867188 -14.492188 37.46875 -15.613281 37.46875 -17 L 37.46875 -17.234375 C 37.46875 -18.160156 37.117188 -18.96875 36.421875 -19.65625 C 35.734375 -20.351562 34.789062 -20.953125 33.59375 -21.453125 C 32.394531 -21.953125 31.023438 -22.429688 29.484375 -22.890625 C 27.941406 -23.359375 26.320312 -23.863281 24.625 -24.40625 C 22.46875 -25.019531 20.289062 -25.769531 18.09375 -26.65625 C 15.894531 -27.539062 13.910156 -28.695312 12.140625 -30.125 C 10.367188 -31.550781 8.921875 -33.304688 7.796875 -35.390625 C 6.679688 -37.472656 6.125 -40.015625 6.125 -43.015625 L 6.125 -43.25 C 6.125 -46.40625 6.722656 -49.195312 7.921875 -51.625 C 9.117188 -54.0625 10.738281 -56.125 12.78125 -57.8125 C 14.820312 -59.507812 17.207031 -60.78125 19.9375 -61.625 C 22.675781 -62.476562 25.628906 -62.90625 28.796875 -62.90625 C 32.722656 -62.90625 36.707031 -62.269531 40.75 -61 C 44.800781 -59.726562 48.523438 -57.972656 51.921875 -55.734375 L 45.21875 -43.59375 C 42.132812 -45.363281 39.125 -46.769531 36.1875 -47.8125 C 33.257812 -48.851562 30.679688 -49.375 28.453125 -49.375 C 26.285156 -49.375 24.660156 -48.96875 23.578125 -48.15625 C 22.503906 -47.351562 21.96875 -46.332031 21.96875 -45.09375 L 21.96875 -44.875 C 21.96875 -44.019531 22.3125 -43.265625 23 -42.609375 C 23.695312 -41.953125 24.625 -41.332031 25.78125 -40.75 C 26.9375 -40.175781 28.265625 -39.617188 29.765625 -39.078125 C 31.273438 -38.546875 32.878906 -38.007812 34.578125 -37.46875 C 36.734375 -36.769531 38.925781 -35.9375 41.15625 -34.96875 C 43.394531 -34.007812 45.398438 -32.835938 47.171875 -31.453125 C 48.953125 -30.066406 50.421875 -28.367188 51.578125 -26.359375 C 52.734375 -24.359375 53.3125 -21.929688 53.3125 -19.078125 L 53.3125 -18.84375 C 53.3125 -15.375 52.710938 -12.382812 51.515625 -9.875 C 50.316406 -7.375 48.640625 -5.3125 46.484375 -3.6875 C 44.328125 -2.070312 41.800781 -0.859375 38.90625 -0.046875 C 36.019531 0.753906 32.921875 1.15625 29.609375 1.15625 Z M 29.609375 1.15625 "/></g></g></g></svg>