<svg xmlns="http://www.w3.org/2000/svg" xmlns:xlink="http://www.w3.org/1999/xlink" width="1000" zoomAndPan="magnify" viewBox="0 0 750 149.999998" height="200" preserveAspectRatio="xMidYMid meet" version="1.0"><defs><g/></defs><g fill="#00ef8b" fill-opacity="1"><g transform="translate(5.361334, 113.798652)"><g><path d="M 9.078125 -75.703125 L 66.734375 -75.703125 L 66.734375 -60.5625 L 25.734375 -60.5625 L 25.734375 -44.453125 L 61.859375 -44.453125 L 61.859375 -29.3125 L 25.734375 -29.3125 L 25.734375 0 L 9.078125 0 Z M 9.078125 -75.703125 "/></g></g></g><g fill="#00ef8b" fill-opacity="1"><g transform="translate(76.301561, 113.798652)"><g><path d="M 8.109375 -78.953125 L 24.546875 -78.953125 L 24.546875 0 L 8.109375 0 Z M 8.109375 -78.953125 "/></g></g></g><g fill="#00ef8b" fill-opacity="1"><g transform="translate(108.960022, 113.798652)"><g><path d="M 35.796875 1.296875 C 31.328125 1.296875 27.179688 0.519531 23.359375 -1.03125 C 19.535156 -2.582031 16.234375 -4.707031 13.453125 -7.40625 C 10.679688 -10.113281 8.503906 -13.285156 6.921875 -16.921875 C 5.335938 -20.566406 4.546875 -24.476562 4.546875 -28.65625 L 4.546875 -28.875 C 4.546875 -33.0625 5.335938 -36.972656 6.921875 -40.609375 C 8.503906 -44.253906 10.703125 -47.445312 13.515625 -50.1875 C 16.328125 -52.925781 19.644531 -55.085938 23.46875 -56.671875 C 27.289062 -58.253906 31.472656 -59.046875 36.015625 -59.046875 C 40.484375 -59.046875 44.628906 -58.269531 48.453125 -56.71875 C 52.273438 -55.175781 55.570312 -53.050781 58.34375 -50.34375 C 61.125 -47.644531 63.304688 -44.472656 64.890625 -40.828125 C 66.472656 -37.179688 67.265625 -33.269531 67.265625 -29.09375 L 67.265625 -28.875 C 67.265625 -24.695312 66.472656 -20.785156 64.890625 -17.140625 C 63.304688 -13.503906 61.109375 -10.316406 58.296875 -7.578125 C 55.484375 -4.835938 52.164062 -2.671875 48.34375 -1.078125 C 44.519531 0.503906 40.335938 1.296875 35.796875 1.296875 Z M 36.015625 -12.875 C 38.390625 -12.875 40.492188 -13.285156 42.328125 -14.109375 C 44.171875 -14.941406 45.742188 -16.078125 47.046875 -17.515625 C 48.347656 -18.960938 49.335938 -20.640625 50.015625 -22.546875 C 50.703125 -24.460938 51.046875 -26.5 51.046875 -28.65625 L 51.046875 -28.875 C 51.046875 -31.039062 50.6875 -33.078125 49.96875 -34.984375 C 49.25 -36.898438 48.203125 -38.597656 46.828125 -40.078125 C 45.460938 -41.554688 43.84375 -42.726562 41.96875 -43.59375 C 40.09375 -44.457031 38.035156 -44.890625 35.796875 -44.890625 C 33.421875 -44.890625 31.3125 -44.472656 29.46875 -43.640625 C 27.632812 -42.804688 26.066406 -41.671875 24.765625 -40.234375 C 23.472656 -38.796875 22.484375 -37.117188 21.796875 -35.203125 C 21.109375 -33.296875 20.765625 -31.257812 20.765625 -29.09375 L 20.765625 -28.875 C 20.765625 -26.71875 21.125 -24.679688 21.84375 -22.765625 C 22.5625 -20.859375 23.601562 -19.164062 24.96875 -17.6875 C 26.34375 -16.207031 27.953125 -15.035156 29.796875 -14.171875 C 31.640625 -13.304688 33.710938 -12.875 36.015625 -12.875 Z M 36.015625 -12.875 "/></g></g></g><g fill="#00ef8b" fill-opacity="1"><g transform="translate(180.765365, 113.798652)"><g><path d="M 2.59375 -57.96875 L 19.25 -57.96875 L 28.546875 -22.828125 L 39.484375 -58.1875 L 53.640625 -58.1875 L 64.671875 -22.71875 L 74.1875 -57.96875 L 90.53125 -57.96875 L 72.46875 0.4375 L 57.640625 0.4375 L 46.5 -35.15625 L 35.15625 0.4375 L 20.4375 0.4375 Z M 2.59375 -57.96875 "/></g></g></g><g fill="#ffffff" fill-opacity="1"><g transform="translate(273.884756, 113.798652)"><g><path d="M 26.71875 -60.34375 L 3.671875 -60.34375 L 3.671875 -75.703125 L 66.40625 -75.703125 L 66.40625 -60.34375 L 43.375 -60.34375 L 43.375 0 L 26.71875 0 Z M 26.71875 -60.34375 "/></g></g></g><g fill="#ffffff" fill-opacity="1"><g transform="translate(343.959856, 113.798652)"><g><path d="M 7.671875 -78.953125 L 24.984375 -78.953125 L 24.984375 -64.359375 L 7.671875 -64.359375 Z M 8.109375 -57.96875 L 24.546875 -57.96875 L 24.546875 0 L 8.109375 0 Z M 8.109375 -57.96875 "/></g></g></g><g fill="#ffffff" fill-opacity="1"><g transform="translate(376.618317, 113.798652)"><g><path d="M 7.359375 -57.96875 L 23.796875 -57.96875 L 23.796875 -49.75 C 24.734375 -50.976562 25.757812 -52.148438 26.875 -53.265625 C 27.988281 -54.378906 29.226562 -55.367188 30.59375 -56.234375 C 31.96875 -57.109375 33.503906 -57.796875 35.203125 -58.296875 C 36.898438 -58.796875 38.796875 -59.046875 40.890625 -59.046875 C 44.703125 -59.046875 47.992188 -58.253906 50.765625 -56.671875 C 53.546875 -55.085938 55.695312 -52.816406 57.21875 -49.859375 C 59.738281 -52.890625 62.546875 -55.175781 65.640625 -56.71875 C 68.742188 -58.269531 72.28125 -59.046875 76.25 -59.046875 C 82.375 -59.046875 87.164062 -57.242188 90.625 -53.640625 C 94.09375 -50.035156 95.828125 -44.738281 95.828125 -37.75 L 95.828125 0 L 79.390625 0 L 79.390625 -32.34375 C 79.390625 -36.226562 78.554688 -39.160156 76.890625 -41.140625 C 75.234375 -43.128906 72.859375 -44.125 69.765625 -44.125 C 66.660156 -44.125 64.222656 -43.128906 62.453125 -41.140625 C 60.691406 -39.160156 59.8125 -36.226562 59.8125 -32.34375 L 59.8125 0 L 43.375 0 L 43.375 -32.34375 C 43.375 -36.226562 42.539062 -39.160156 40.875 -41.140625 C 39.21875 -43.128906 36.84375 -44.125 33.75 -44.125 C 30.644531 -44.125 28.207031 -43.128906 26.4375 -41.140625 C 24.675781 -39.160156 23.796875 -36.226562 23.796875 -32.34375 L 23.796875 0 L 7.359375 0 Z M 7.359375 -57.96875 "/></g></g></g><g fill="#ffffff" fill-opacity="1"><g transform="translate(479.351877, 113.798652)"><g><path d="M 34.828125 1.296875 C 30.503906 1.296875 26.484375 0.578125 22.765625 -0.859375 C 19.054688 -2.304688 15.847656 -4.363281 13.140625 -7.03125 C 10.429688 -9.695312 8.320312 -12.847656 6.8125 -16.484375 C 5.300781 -20.128906 4.546875 -24.1875 4.546875 -28.65625 L 4.546875 -28.875 C 4.546875 -32.988281 5.25 -36.882812 6.65625 -40.5625 C 8.0625 -44.238281 10.023438 -47.445312 12.546875 -50.1875 C 15.066406 -52.925781 18.078125 -55.085938 21.578125 -56.671875 C 25.078125 -58.253906 28.953125 -59.046875 33.203125 -59.046875 C 38.035156 -59.046875 42.21875 -58.179688 45.75 -56.453125 C 49.28125 -54.722656 52.21875 -52.394531 54.5625 -49.46875 C 56.90625 -46.550781 58.632812 -43.203125 59.75 -39.421875 C 60.875 -35.640625 61.4375 -31.691406 61.4375 -27.578125 C 61.4375 -26.929688 61.414062 -26.242188 61.375 -25.515625 C 61.34375 -24.796875 61.289062 -24.039062 61.21875 -23.25 L 20.875 -23.25 C 21.664062 -19.5 23.304688 -16.664062 25.796875 -14.75 C 28.285156 -12.84375 31.367188 -11.890625 35.046875 -11.890625 C 37.785156 -11.890625 40.234375 -12.359375 42.390625 -13.296875 C 44.554688 -14.234375 46.796875 -15.75 49.109375 -17.84375 L 58.515625 -9.515625 C 55.773438 -6.128906 52.457031 -3.476562 48.5625 -1.5625 C 44.664062 0.34375 40.085938 1.296875 34.828125 1.296875 Z M 45.421875 -33.53125 C 44.921875 -37.207031 43.625 -40.179688 41.53125 -42.453125 C 39.4375 -44.722656 36.660156 -45.859375 33.203125 -45.859375 C 29.742188 -45.859375 26.945312 -44.738281 24.8125 -42.5 C 22.6875 -40.269531 21.300781 -37.28125 20.65625 -33.53125 Z M 45.421875 -33.53125 "/></g></g></g><g fill="#ffffff" fill-opacity="1"><g transform="translate(545.642049, 113.798652)"><g><path d="M 8.109375 -78.953125 L 24.546875 -78.953125 L 24.546875 0 L 8.109375 0 Z M 8.109375 -78.953125 "/></g></g></g><g fill="#ffffff" fill-opacity="1"><g transform="translate(578.30051, 113.798652)"><g><path d="M 7.671875 -78.953125 L 24.984375 -78.953125 L 24.984375 -64.359375 L 7.671875 -64.359375 Z M 8.109375 -57.96875 L 24.546875 -57.96875 L 24.546875 0 L 8.109375 0 Z M 8.109375 -57.96875 "/></g></g></g><g fill="#ffffff" fill-opacity="1"><g transform="translate(610.958971, 113.798652)"><g><path d="M 7.359375 -57.96875 L 23.796875 -57.96875 L 23.796875 -49.75 C 24.734375 -50.976562 25.757812 -52.148438 26.875 -53.265625 C 27.988281 -54.378906 29.226562 -55.367188 30.59375 -56.234375 C 31.96875 -57.109375 33.484375 -57.796875 35.140625 -58.296875 C 36.804688 -58.796875 38.6875 -59.046875 40.78125 -59.046875 C 47.050781 -59.046875 51.894531 -57.132812 55.3125 -53.3125 C 58.738281 -49.5 60.453125 -44.238281 60.453125 -37.53125 L 60.453125 0 L 44.015625 0 L 44.015625 -32.34375 C 44.015625 -36.226562 43.148438 -39.160156 41.421875 -41.140625 C 39.691406 -43.128906 37.238281 -44.125 34.0625 -44.125 C 30.894531 -44.125 28.390625 -43.128906 26.546875 -41.140625 C 24.710938 -39.160156 23.796875 -36.226562 23.796875 -32.34375 L 23.796875 0 L 7.359375 0 Z M 7.359375 -57.96875 "/></g></g></g><g fill="#ffffff" fill-opacity="1"><g transform="translate(678.330564, 113.798652)"><g><path d="M 34.828125 1.296875 C 30.503906 1.296875 26.484375 0.578125 22.765625 -0.859375 C 19.054688 -2.304688 15.847656 -4.363281 13.140625 -7.03125 C 10.429688 -9.695312 8.320312 -12.847656 6.8125 -16.484375 C 5.300781 -20.128906 4.546875 -24.1875 4.546875 -28.65625 L 4.546875 -28.875 C 4.546875 -32.988281 5.25 -36.882812 6.65625 -40.5625 C 8.0625 -44.238281 10.023438 -47.445312 12.546875 -50.1875 C 15.066406 -52.925781 18.078125 -55.085938 21.578125 -56.671875 C 25.078125 -58.253906 28.953125 -59.046875 33.203125 -59.046875 C 38.035156 -59.046875 42.21875 -58.179688 45.75 -56.453125 C 49.28125 -54.722656 52.21875 -52.394531 54.5625 -49.46875 C 56.90625 -46.550781 58.632812 -43.203125 59.75 -39.421875 C 60.875 -35.640625 61.4375 -31.691406 61.4375 -27.578125 C 61.4375 -26.929688 61.414062 -26.242188 61.375 -25.515625 C 61.34375 -24.796875 61.289062 -24.039062 61.21875 -23.25 L 20.875 -23.25 C 21.664062 -19.5 23.304688 -16.664062 25.796875 -14.75 C 28.285156 -12.84375 31.367188 -11.890625 35.046875 -11.890625 C 37.785156 -11.890625 40.234375 -12.359375 42.390625 -13.296875 C 44.554688 -14.234375 46.796875 -15.75 49.109375 -17.84375 L 58.515625 -9.515625 C 55.773438 -6.128906 52.457031 -3.476562 48.5625 -1.5625 C 44.664062 0.34375 40.085938 1.296875 34.828125 1.296875 Z M 45.421875 -33.53125 C 44.921875 -37.207031 43.625 -40.179688 41.53125 -42.453125 C 39.4375 -44.722656 36.660156 -45.859375 33.203125 -45.859375 C 29.742188 -45.859375 26.945312 -44.738281 24.8125 -42.5 C 22.6875 -40.269531 21.300781 -37.28125 20.65625 -33.53125 Z M 45.421875 -33.53125 "/></g></g></g></svg>