<svg xmlns="http://www.w3.org/2000/svg" xmlns:xlink="http://www.w3.org/1999/xlink" width="1000" zoomAndPan="magnify" viewBox="0 0 750 149.999998" height="200" preserveAspectRatio="xMidYMid meet" version="1.0"><defs><g/></defs><g fill="#00ef8b" fill-opacity="1"><g transform="translate(51.539066, 113.798652)"><g><path d="M 9.078125 -75.703125 L 66.734375 -75.703125 L 66.734375 -60.5625 L 25.734375 -60.5625 L 25.734375 -44.453125 L 61.859375 -44.453125 L 61.859375 -29.3125 L 25.734375 -29.3125 L 25.734375 0 L 9.078125 0 Z M 9.078125 -75.703125 "/></g></g></g><g fill="#00ef8b" fill-opacity="1"><g transform="translate(122.479293, 113.798652)"><g><path d="M 8.109375 -78.953125 L 24.546875 -78.953125 L 24.546875 0 L 8.109375 0 Z M 8.109375 -78.953125 "/></g></g></g><g fill="#00ef8b" fill-opacity="1"><g transform="translate(155.137754, 113.798652)"><g><path d="M 35.796875 1.296875 C 31.328125 1.296875 27.179688 0.519531 23.359375 -1.03125 C 19.535156 -2.582031 16.234375 -4.707031 13.453125 -7.40625 C 10.679688 -10.113281 8.503906 -13.285156 6.921875 -16.921875 C 5.335938 -20.566406 4.546875 -24.476562 4.546875 -28.65625 L 4.546875 -28.875 C 4.546875 -33.0625 5.335938 -36.972656 6.921875 -40.609375 C 8.503906 -44.253906 10.703125 -47.445312 13.515625 -50.1875 C 16.328125 -52.925781 19.644531 -55.085938 23.46875 -56.671875 C 27.289062 -58.253906 31.472656 -59.046875 36.015625 -59.046875 C 40.484375 -59.046875 44.628906 -58.269531 48.453125 -56.71875 C 52.273438 -55.175781 55.570312 -53.050781 58.34375 -50.34375 C 61.125 -47.644531 63.304688 -44.472656 64.890625 -40.828125 C 66.472656 -37.179688 67.265625 -33.269531 67.265625 -29.09375 L 67.265625 -28.875 C 67.265625 -24.695312 66.472656 -20.785156 64.890625 -17.140625 C 63.304688 -13.503906 61.109375 -10.316406 58.296875 -7.578125 C 55.484375 -4.835938 52.164062 -2.671875 48.34375 -1.078125 C 44.519531 0.503906 40.335938 1.296875 35.796875 1.296875 Z M 36.015625 -12.875 C 38.390625 -12.875 40.492188 -13.285156 42.328125 -14.109375 C 44.171875 -14.941406 45.742188 -16.078125 47.046875 -17.515625 C 48.347656 -18.960938 49.335938 -20.640625 50.015625 -22.546875 C 50.703125 -24.460938 51.046875 -26.5 51.046875 -28.65625 L 51.046875 -28.875 C 51.046875 -31.039062 50.6875 -33.078125 49.96875 -34.984375 C 49.25 -36.898438 48.203125 -38.597656 46.828125 -40.078125 C 45.460938 -41.554688 43.84375 -42.726562 41.96875 -43.59375 C 40.09375 -44.457031 38.035156 -44.890625 35.796875 -44.890625 C 33.421875 -44.890625 31.3125 -44.472656 29.46875 -43.640625 C 27.632812 -42.804688 26.066406 -41.671875 24.765625 -40.234375 C 23.472656 -38.796875 22.484375 -37.117188 21.796875 -35.203125 C 21.109375 -33.296875 20.765625 -31.257812 20.765625 -29.09375 L 20.765625 -28.875 C 20.765625 -26.71875 21.125 -24.679688 21.84375 -22.765625 C 22.5625 -20.859375 23.601562 -19.164062 24.96875 -17.6875 C 26.34375 -16.207031 27.953125 -15.035156 29.796875 -14.171875 C 31.640625 -13.304688 33.710938 -12.875 36.015625 -12.875 Z M 36.015625 -12.875 "/></g></g></g><g fill="#00ef8b" fill-opacity="1"><g transform="translate(226.943097, 113.798652)"><g><path d="M 2.59375 -57.96875 L 19.25 -57.96875 L 28.546875 -22.828125 L 39.484375 -58.1875 L 53.640625 -58.1875 L 64.671875 -22.71875 L 74.1875 -57.96875 L 90.53125 -57.96875 L 72.46875 0.4375 L 57.640625 0.4375 L 46.5 -35.15625 L 35.15625 0.4375 L 20.4375 0.4375 Z M 2.59375 -57.96875 "/></g></g></g><g fill="#ffffff" fill-opacity="1"><g transform="translate(320.062488, 113.798652)"><g><path d="M 9.078125 -75.703125 L 27.03125 -75.703125 L 46.9375 -43.6875 L 66.84375 -75.703125 L 84.796875 -75.703125 L 84.796875 0 L 68.25 0 L 68.25 -49.421875 L 46.9375 -17.09375 L 46.5 -17.09375 L 25.421875 -49.109375 L 25.421875 0 L 9.078125 0 Z M 9.078125 -75.703125 "/></g></g></g><g fill="#ffffff" fill-opacity="1"><g transform="translate(413.928514, 113.798652)"><g><path d="M 35.796875 1.296875 C 31.328125 1.296875 27.179688 0.519531 23.359375 -1.03125 C 19.535156 -2.582031 16.234375 -4.707031 13.453125 -7.40625 C 10.679688 -10.113281 8.503906 -13.285156 6.921875 -16.921875 C 5.335938 -20.566406 4.546875 -24.476562 4.546875 -28.65625 L 4.546875 -28.875 C 4.546875 -33.0625 5.335938 -36.972656 6.921875 -40.609375 C 8.503906 -44.253906 10.703125 -47.445312 13.515625 -50.1875 C 16.328125 -52.925781 19.644531 -55.085938 23.46875 -56.671875 C 27.289062 -58.253906 31.472656 -59.046875 36.015625 -59.046875 C 40.484375 -59.046875 44.628906 -58.269531 48.453125 -56.71875 C 52.273438 -55.175781 55.570312 -53.050781 58.34375 -50.34375 C 61.125 -47.644531 63.304688 -44.472656 64.890625 -40.828125 C 66.472656 -37.179688 67.265625 -33.269531 67.265625 -29.09375 L 67.265625 -28.875 C 67.265625 -24.695312 66.472656 -20.785156 64.890625 -17.140625 C 63.304688 -13.503906 61.109375 -10.316406 58.296875 -7.578125 C 55.484375 -4.835938 52.164062 -2.671875 48.34375 -1.078125 C 44.519531 0.503906 40.335938 1.296875 35.796875 1.296875 Z M 36.015625 -12.875 C 38.390625 -12.875 40.492188 -13.285156 42.328125 -14.109375 C 44.171875 -14.941406 45.742188 -16.078125 47.046875 -17.515625 C 48.347656 -18.960938 49.335938 -20.640625 50.015625 -22.546875 C 50.703125 -24.460938 51.046875 -26.5 51.046875 -28.65625 L 51.046875 -28.875 C 51.046875 -31.039062 50.6875 -33.078125 49.96875 -34.984375 C 49.25 -36.898438 48.203125 -38.597656 46.828125 -40.078125 C 45.460938 -41.554688 43.84375 -42.726562 41.96875 -43.59375 C 40.09375 -44.457031 38.035156 -44.890625 35.796875 -44.890625 C 33.421875 -44.890625 31.3125 -44.472656 29.46875 -43.640625 C 27.632812 -42.804688 26.066406 -41.671875 24.765625 -40.234375 C 23.472656 -38.796875 22.484375 -37.117188 21.796875 -35.203125 C 21.109375 -33.296875 20.765625 -31.257812 20.765625 -29.09375 L 20.765625 -28.875 C 20.765625 -26.71875 21.125 -24.679688 21.84375 -22.765625 C 22.5625 -20.859375 23.601562 -19.164062 24.96875 -17.6875 C 26.34375 -16.207031 27.953125 -15.035156 29.796875 -14.171875 C 31.640625 -13.304688 33.710938 -12.875 36.015625 -12.875 Z M 36.015625 -12.875 "/></g></g></g><g fill="#ffffff" fill-opacity="1"><g transform="translate(485.733858, 113.798652)"><g><path d="M 27.6875 1.078125 C 23.570312 1.078125 19.367188 0.375 15.078125 -1.03125 C 10.796875 -2.4375 6.707031 -4.648438 2.8125 -7.671875 L 9.84375 -18.5 C 13.007812 -16.1875 16.160156 -14.453125 19.296875 -13.296875 C 22.441406 -12.148438 25.382812 -11.578125 28.125 -11.578125 C 30.5 -11.578125 32.242188 -11.972656 33.359375 -12.765625 C 34.484375 -13.554688 35.046875 -14.601562 35.046875 -15.90625 L 35.046875 -16.109375 C 35.046875 -16.972656 34.71875 -17.726562 34.0625 -18.375 C 33.414062 -19.03125 32.535156 -19.59375 31.421875 -20.0625 C 30.304688 -20.53125 29.023438 -20.976562 27.578125 -21.40625 C 26.140625 -21.84375 24.625 -22.316406 23.03125 -22.828125 C 21.019531 -23.398438 18.984375 -24.097656 16.921875 -24.921875 C 14.867188 -25.753906 13.015625 -26.835938 11.359375 -28.171875 C 9.703125 -29.503906 8.347656 -31.144531 7.296875 -33.09375 C 6.253906 -35.039062 5.734375 -37.421875 5.734375 -40.234375 L 5.734375 -40.453125 C 5.734375 -43.410156 6.289062 -46.023438 7.40625 -48.296875 C 8.519531 -50.566406 10.03125 -52.492188 11.9375 -54.078125 C 13.851562 -55.660156 16.09375 -56.847656 18.65625 -57.640625 C 21.21875 -58.441406 23.976562 -58.84375 26.9375 -58.84375 C 30.613281 -58.84375 34.34375 -58.242188 38.125 -57.046875 C 41.90625 -55.859375 45.382812 -54.21875 48.5625 -52.125 L 42.296875 -40.78125 C 39.410156 -42.4375 36.597656 -43.75 33.859375 -44.71875 C 31.117188 -45.695312 28.703125 -46.1875 26.609375 -46.1875 C 24.585938 -46.1875 23.070312 -45.804688 22.0625 -45.046875 C 21.050781 -44.285156 20.546875 -43.332031 20.546875 -42.1875 L 20.546875 -41.96875 C 20.546875 -41.175781 20.867188 -40.472656 21.515625 -39.859375 C 22.171875 -39.242188 23.035156 -38.664062 24.109375 -38.125 C 25.191406 -37.582031 26.4375 -37.054688 27.84375 -36.546875 C 29.25 -36.046875 30.75 -35.546875 32.34375 -35.046875 C 34.351562 -34.390625 36.40625 -33.609375 38.5 -32.703125 C 40.59375 -31.804688 42.46875 -30.707031 44.125 -29.40625 C 45.78125 -28.113281 47.148438 -26.53125 48.234375 -24.65625 C 49.316406 -22.78125 49.859375 -20.507812 49.859375 -17.84375 L 49.859375 -17.625 C 49.859375 -14.382812 49.296875 -11.59375 48.171875 -9.25 C 47.054688 -6.90625 45.488281 -4.972656 43.46875 -3.453125 C 41.457031 -1.941406 39.097656 -0.804688 36.390625 -0.046875 C 33.691406 0.703125 30.789062 1.078125 27.6875 1.078125 Z M 27.6875 1.078125 "/></g></g></g><g fill="#ffffff" fill-opacity="1"><g transform="translate(540.020438, 113.798652)"><g><path d="M 23.796875 1.078125 C 21.054688 1.078125 18.476562 0.703125 16.0625 -0.046875 C 13.644531 -0.804688 11.535156 -1.941406 9.734375 -3.453125 C 7.929688 -4.972656 6.503906 -6.832031 5.453125 -9.03125 C 4.410156 -11.226562 3.890625 -13.769531 3.890625 -16.65625 L 3.890625 -16.875 C 3.890625 -20.039062 4.46875 -22.773438 5.625 -25.078125 C 6.78125 -27.390625 8.382812 -29.300781 10.4375 -30.8125 C 12.488281 -32.332031 14.9375 -33.46875 17.78125 -34.21875 C 20.632812 -34.976562 23.789062 -35.359375 27.25 -35.359375 C 30.207031 -35.359375 32.785156 -35.140625 34.984375 -34.703125 C 37.179688 -34.273438 39.328125 -33.703125 41.421875 -32.984375 L 41.421875 -33.96875 C 41.421875 -37.425781 40.375 -40.054688 38.28125 -41.859375 C 36.195312 -43.660156 33.097656 -44.5625 28.984375 -44.5625 C 25.816406 -44.5625 23.023438 -44.289062 20.609375 -43.75 C 18.191406 -43.207031 15.648438 -42.429688 12.984375 -41.421875 L 8.875 -53.96875 C 12.039062 -55.34375 15.351562 -56.460938 18.8125 -57.328125 C 22.28125 -58.191406 26.460938 -58.625 31.359375 -58.625 C 35.898438 -58.625 39.773438 -58.0625 42.984375 -56.9375 C 46.203125 -55.820312 48.851562 -54.21875 50.9375 -52.125 C 53.101562 -49.96875 54.691406 -47.320312 55.703125 -44.1875 C 56.710938 -41.050781 57.21875 -37.535156 57.21875 -33.640625 L 57.21875 0 L 41.3125 0 L 41.3125 -6.265625 C 39.289062 -4.035156 36.875 -2.253906 34.0625 -0.921875 C 31.25 0.410156 27.828125 1.078125 23.796875 1.078125 Z M 28.765625 -10.28125 C 32.660156 -10.28125 35.78125 -11.21875 38.125 -13.09375 C 40.46875 -14.96875 41.640625 -17.414062 41.640625 -20.4375 L 41.640625 -23.359375 C 40.203125 -24.003906 38.597656 -24.523438 36.828125 -24.921875 C 35.054688 -25.328125 33.164062 -25.53125 31.15625 -25.53125 C 27.613281 -25.53125 24.832031 -24.84375 22.8125 -23.46875 C 20.800781 -22.101562 19.796875 -20.117188 19.796875 -17.515625 L 19.796875 -17.3125 C 19.796875 -15.070312 20.625 -13.335938 22.28125 -12.109375 C 23.9375 -10.890625 26.097656 -10.28125 28.765625 -10.28125 Z M 28.765625 -10.28125 "/></g></g></g><g fill="#ffffff" fill-opacity="1"><g transform="translate(604.039667, 113.798652)"><g><path d="M 7.671875 -78.953125 L 24.984375 -78.953125 L 24.984375 -64.359375 L 7.671875 -64.359375 Z M 8.109375 -57.96875 L 24.546875 -57.96875 L 24.546875 0 L 8.109375 0 Z M 8.109375 -57.96875 "/></g></g></g><g fill="#ffffff" fill-opacity="1"><g transform="translate(636.698128, 113.798652)"><g><path d="M 34.71875 1.296875 C 30.394531 1.296875 26.375 0.503906 22.65625 -1.078125 C 18.945312 -2.671875 15.753906 -4.816406 13.078125 -7.515625 C 10.410156 -10.222656 8.320312 -13.394531 6.8125 -17.03125 C 5.300781 -20.675781 4.546875 -24.550781 4.546875 -28.65625 L 4.546875 -28.875 C 4.546875 -32.988281 5.300781 -36.882812 6.8125 -40.5625 C 8.320312 -44.238281 10.410156 -47.445312 13.078125 -50.1875 C 15.753906 -52.925781 18.945312 -55.085938 22.65625 -56.671875 C 26.375 -58.253906 30.46875 -59.046875 34.9375 -59.046875 C 40.414062 -59.046875 44.957031 -58.179688 48.5625 -56.453125 C 52.164062 -54.722656 55.335938 -52.34375 58.078125 -49.3125 L 48.015625 -38.5 C 46.140625 -40.445312 44.210938 -42 42.234375 -43.15625 C 40.253906 -44.3125 37.785156 -44.890625 34.828125 -44.890625 C 32.734375 -44.890625 30.835938 -44.472656 29.140625 -43.640625 C 27.453125 -42.804688 25.976562 -41.671875 24.71875 -40.234375 C 23.457031 -38.796875 22.484375 -37.117188 21.796875 -35.203125 C 21.109375 -33.296875 20.765625 -31.257812 20.765625 -29.09375 L 20.765625 -28.875 C 20.765625 -26.644531 21.109375 -24.554688 21.796875 -22.609375 C 22.484375 -20.660156 23.472656 -18.960938 24.765625 -17.515625 C 26.066406 -16.078125 27.617188 -14.941406 29.421875 -14.109375 C 31.222656 -13.285156 33.238281 -12.875 35.46875 -12.875 C 38.207031 -12.875 40.601562 -13.429688 42.65625 -14.546875 C 44.71875 -15.660156 46.757812 -17.15625 48.78125 -19.03125 L 58.40625 -9.296875 C 55.59375 -6.203125 52.382812 -3.660156 48.78125 -1.671875 C 45.175781 0.304688 40.488281 1.296875 34.71875 1.296875 Z M 34.71875 1.296875 "/></g></g></g></svg>